<svg xmlns="http://www.w3.org/2000/svg" xmlns:xlink="http://www.w3.org/1999/xlink" width="60" height="60" viewBox="-0.5 -0.5 60 60"><circle fill="#DE5833" cx="28.498" cy="28.5" r="22.5"/><defs><path id="a" d="M47.389 28.499c0 10.416-8.471 18.89-18.889 18.89-10.416 0-18.886-8.473-18.886-18.89 0-10.414 8.472-18.887 18.886-18.887 10.416 0 18.889 8.473 18.889 18.887z"/></defs><clipPath id="b"><use xlink:href="#a" overflow="visible"/></clipPath><g clip-path="url(#b)"><path fill="#FFF" d="M36.719 55.466c-.642-2.957-4.38-9.655-5.795-12.491-1.418-2.834-2.835-6.824-2.189-9.4.116-.469-1.229-4.042-.84-4.289 3.001-1.962 3.794.214 5-.665.617-.454 1.463.374 1.679-.377.769-2.704-1.075-7.416-3.136-9.475-.67-.67-1.702-1.094-2.867-1.316-.448-.612-1.17-1.2-2.19-1.741-1.14-.606-3.618-1.408-4.9-1.621-.889-.148-1.092.102-1.469.166.352.031 2.034.86 2.36.909-.327.22-1.288-.01-1.901.265-.31.139-.54.671-.538.921 1.753-.176 4.49-.004 6.107.714-1.289.146-3.244.309-4.085.751-2.444 1.29-3.524 4.298-2.881 7.905.646 3.604 3.479 16.741 4.38 21.115.902 4.38-1.934 7.215-3.733 7.984l1.931.135-.643 1.417c2.315.254 4.893-.515 4.893-.515-.514 1.416-3.993 1.936-3.993 1.936s1.675.51 4.379-.521c2.703-1.029 4.375-1.672 4.375-1.672l1.291 3.346L34.4 56.5l1.029 2.574c.003 0 1.932-.644 1.29-3.608z"/><path fill="#FFF" d="M37.283 54.9c-.645-2.961-4.381-9.657-5.797-12.49-1.42-2.836-2.836-6.824-2.188-9.399.116-.468.122-2.383.509-2.639 3-1.966 2.791-.067 3.995-.948.622-.453 1.114-.999 1.337-1.752.771-2.704-1.078-7.414-3.135-9.476-.671-.671-1.704-1.092-2.866-1.313-.449-.615-1.172-1.202-2.193-1.745-1.926-1.022-4.312-1.431-6.523-1.032.354.034 1.162.765 1.488.812-.494.334-1.805.292-1.796 1.035 1.756-.173 3.679.104 5.299.82-1.287.146-2.483.465-3.325.91-2.447 1.284-3.09 3.859-2.447 7.469.645 3.606 3.479 16.741 4.377 21.116.902 4.377-1.93 7.211-3.733 7.983l1.931.129-.643 1.42c2.317.257 4.894-.517 4.894-.517-.514 1.419-3.994 1.938-3.994 1.938s1.673.516 4.378-.521l4.379-1.668 1.285 3.344 2.451-2.444 1.029 2.575c.001.001 1.935-.644 1.288-3.607z"/><circle fill="#2C4E8D" cx="23.832" cy="25.335" r="1.353"/><circle fill="#FFF" cx="24.431" cy="24.885" r=".35"/><circle fill="#2C4E8D" cx="32.873" cy="24.533" r="1.161"/><path fill="#FFF" d="M33.087 24.146c0-.165.14-.302.3-.302a.301.301 0 1 1 0 .603.302.302 0 0 1-.3-.301z"/><linearGradient id="c" gradientUnits="userSpaceOnUse" x1="2141.157" y1="-3244.867" x2="2144.219" y2="-3244.867" gradientTransform="matrix(1 0 0 -1 -2120 -3223)"><stop offset=".006" stop-color="#5d7cfe"/><stop offset=".691" stop-color="#192dc5"/></linearGradient><path fill="url(#c)" d="M24.219 21.418s-1.021-.461-2.011.16c-.99.623-.954 1.257-.954 1.257s-.527-1.172.877-1.743c1.402-.575 2.088.326 2.088.326z"/><linearGradient id="d" gradientUnits="userSpaceOnUse" x1="2150.783" y1="-3243.936" x2="2153.57" y2="-3243.936" gradientTransform="matrix(1 0 0 -1 -2120 -3223)"><stop offset=".006" stop-color="#5d7cfe"/><stop offset=".691" stop-color="#192dc5"/></linearGradient><path fill="url(#d)" d="M33.57 21.323s-.731-.418-1.301-.409c-1.168.018-1.486.531-1.486.531s.195-1.231 1.689-.984c.812.135 1.098.862 1.098.862z"/></g><path fill="#FDD204" d="M27.974 30.503c.135-.821 2.249-2.365 3.744-2.46 1.503-.095 1.97-.071 3.22-.372 1.25-.298 4.479-1.102 5.371-1.516.896-.411 4.676.204 2.017 1.692-1.156.647-4.267 1.832-6.491 2.496-2.225.665-3.572-.634-4.309.456-.582.872-.123 2.059 2.533 2.309 3.58.334 7.018-1.613 7.402-.582.377 1.035-3.081 2.328-5.189 2.367-2.104.037-6.354-1.391-6.98-1.834-.646-.448-1.498-1.478-1.318-2.556z"/><g><path fill="#65BC46" d="M29.076 41.68s-5.037-2.688-5.118-1.596c-.086 1.089 0 5.538.586 5.875.589.337 4.785-2.18 4.785-2.18l-.253-2.099zM31.006 41.51s3.443-2.603 4.2-2.436c.758.169.922 5.537.252 5.797-.673.248-4.61-1.366-4.61-1.366l.158-1.995z"/><path fill="#4D913B" d="M27.857 41.963c0 1.762-.254 2.52.503 2.688.757.168 2.179 0 2.685-.336.501-.336.083-2.602-.086-3.025-.167-.419-3.102-.083-3.102.673z"/><path fill="#65BC46" d="M28.36 41.479c0 1.761-.254 2.517.503 2.685.754.17 2.18 0 2.682-.335.504-.336.084-2.602-.085-3.023-.164-.422-3.1-.083-3.1.673z"/></g><g><path fill="none" stroke="#FFF" stroke-width="1.7" stroke-miterlimit="10" d="M28.502 8.808C17.634 8.808 8.81 17.631 8.81 28.5s8.824 19.693 19.692 19.693S48.193 39.369 48.193 28.5c.001-10.869-8.823-19.692-19.691-19.692"/></g></svg>