<svg width="20" height="20" viewBox="0 0 20 20" xmlns="http://www.w3.org/2000/svg"><title>XMLID_87_</title><path d="M10 0C4.5 0 0 4.5 0 10s4.5 10 10 10 10-4.5 10-10S15.5 0 10 0zm0 3.1s-1 0-1.2.5c-.3.5-.4 1.6-.6 1.9-.3.4-1.3.8-1.3.8l-1.4.9-1.1.7s0-.5-.7.1-.8.5-.8 1 .9.6 1.9.5c1-.1 2.5.5 2.5.5s.2-.3.4.4.4 1.3.2 1.6c-.3.5-.3 0-.7 1-.3 1-.5 1.2-.4 1.7.1.5.8 1.6.6 1.7-.3.1-.8.1-1.3-.6s-.8-.5-.9-1.6C5 13.1 5 12.9 5 12.9l-.5-.8s-.6-.3-.8-.5c-.1-.3-.5-1.2-.5-1.2l-.6-.6-.5-.6v-.6C2.8 4.8 6.1 2 10 2h.1L10 3.1zm4.2 13.7c0-.4.2-1.1.3-1.7.1-.6.2-1 .4-1.4.1-.4.4-.7.6-1.1.2-.4-.7-.6-.7-.6s-.4-.3-1.2-.1c-.8.2-.7-.2-1.6-1.2-.9-.9-.3-1-.2-2 .1-1 .7-1.5 1.3-1.3.6.1.3-.2.2-.6-.1-.4.4-.6.4-.6l-.6-1.1-.1-1.3s.1-.5.2-1.1C16 3.9 18 6.7 18 10c0 2.9-1.5 5.4-3.8 6.8z" fill="#000" fill-rule="evenodd"/></svg>